# xmcd
#
# Track frame offsets:
#	150
#	34858
#	54610
#	89930
#	110230
#	141705
#	160055
#	179080
#
# Disc length: 2924 seconds
#
# Revision: 0
# Processed by: cddbd v1.5.1PL2 Copyright (c) Steve Scherf et al.
# Submitted via: audiograbber 1.83.01
#
DISCID=810b6a08
DTITLE=Buddy Guy And Junior Wells - Pleading The Blues
DYEAR=1979
DGENRE=Blues
TTITLE0=Pleading The Blues
TTITLE1=It Hurts Me Too
TTITLE2=Cut Out The Lights
TTITLE3=Quit Teasing My Baby
TTITLE4=I'll Take Care Of You
TTITLE5=Take Your Time Baby
TTITLE6=Just For my Baby
TTITLE7=I Smell Something
EXTD=
EXTT0=
EXTT1=
EXTT2=
EXTT3=
EXTT4=
EXTT5=
EXTT6=
EXTT7=
PLAYORDER=
